# Blender v2.77 (sub 0) OBJ File: ''
# www.blender.org
mtllib bombe.mtl
o mesh48
v 0.845770 1.296520 0.493278
v 0.908981 1.187916 0.731756
v 0.067121 1.089649 0.493278
v 0.067121 0.959774 0.731756
v -0.708079 1.296520 0.493278
v -0.771290 1.187916 0.731756
v -1.276406 1.864849 0.493278
v -1.385015 1.801640 0.731756
v -1.483279 2.640049 0.493279
v -1.609702 2.640049 0.731757
v -1.276406 3.415249 0.493279
v -1.385015 3.481907 0.731757
v -0.708079 3.983578 0.493279
v -0.771290 4.095631 0.731757
v 0.067121 4.193897 0.493279
v 0.067121 4.320316 0.731757
v 0.845770 3.983578 0.493279
v 0.908981 4.095631 0.731757
v 1.414097 3.415249 0.493279
v 1.522705 3.481907 0.731757
v 1.620970 2.640049 0.493279
v 1.747393 2.640049 0.731757
v 1.414097 1.864849 0.493278
v 1.522705 1.801640 0.731756
v -0.525916 3.667522 1.173662
v -0.252383 3.198032 1.310428
v 0.067121 3.828999 1.173662
v 0.067121 3.281933 1.310428
v 0.663606 3.667522 1.173662
v 0.389499 3.198032 1.310428
v 1.098040 3.236530 1.173662
v 0.624530 2.963001 1.310428
v 1.256069 2.640049 1.173662
v 0.712451 2.640049 1.310428
v 0.067121 2.640049 1.355826
v 0.624530 2.321117 1.310427
v 0.389499 2.086086 1.310427
v 0.067121 1.998165 1.310427
v -0.252383 2.086086 1.310427
v -0.486839 2.321117 1.310427
v -0.574761 2.640049 1.310428
v -0.486839 2.963001 1.310428
v -0.960349 3.236530 1.173662
v -1.118378 2.640049 1.173662
v -0.960349 2.047588 1.173661
v -0.525916 1.612576 1.173661
v 0.067121 1.454548 1.173661
v 0.663606 1.612576 1.173661
v 1.098040 2.047588 1.173661
v 1.414097 1.864849 0.970236
v 1.620970 2.640049 0.970237
v 1.414097 3.415249 0.970237
v 0.845770 3.983578 0.970237
v 0.067121 4.193897 0.970237
v -0.708079 3.983578 0.970237
v -1.276406 3.415249 0.970237
v -1.483279 2.640049 0.970237
v -1.276406 1.864849 0.970236
v 0.845770 1.296520 0.970236
v 0.067121 1.089649 0.970236
v -0.708079 1.296520 0.970236
v 0.067121 1.454548 0.468568
v 0.663606 1.612576 0.468568
v 1.098040 2.047588 0.468568
v 1.256069 2.640049 0.468569
v 1.098040 3.236530 0.468569
v 0.663606 3.667522 0.468569
v 0.067121 3.828999 0.468569
v -0.525916 3.667522 0.468569
v -0.960349 3.236530 0.468569
v -1.118378 2.640049 0.468569
v -0.960349 2.047588 0.468568
v -0.525916 1.612576 0.468568
v -0.252383 2.086086 0.454202
v 0.067121 1.998165 0.454202
v 0.389499 2.086086 0.454202
v 0.624530 2.321117 0.454202
v 0.712451 2.640049 0.454203
v 0.624530 2.963001 0.454203
v 0.389499 3.198032 0.454203
v 0.067121 3.281933 0.454203
v -0.252383 3.198032 0.454203
v -0.486839 2.963001 0.454203
v -0.574761 2.640049 0.454203
v -0.486839 2.321117 0.454202
v 0.067121 2.640049 0.447307
vt 0.4651 -0.6108
vt 0.4675 -0.6147
vt 0.4365 -0.6182
vt 0.4365 -0.6230
vt 0.4082 -0.6108
vt 0.4058 -0.6147
vt 0.3872 -0.5898
vt 0.3833 -0.5923
vt 0.3796 -0.5615
vt 0.3750 -0.5615
vt 0.3872 -0.5327
vt 0.3833 -0.5308
vt 0.4082 -0.5122
vt 0.4058 -0.5078
vt 0.4365 -0.5044
vt 0.4365 -0.5000
vt 0.4651 -0.5122
vt 0.4675 -0.5078
vt 0.4858 -0.5327
vt 0.4900 -0.5308
vt 0.4937 -0.5615
vt 0.4983 -0.5615
vt 0.4858 -0.5898
vt 0.4900 -0.5923
vt 0.4148 -0.5234
vt 0.4248 -0.5410
vt 0.4365 -0.5176
vt 0.4365 -0.5376
vt 0.4585 -0.5234
vt 0.4485 -0.5410
vt 0.4744 -0.5396
vt 0.4570 -0.5498
vt 0.4802 -0.5615
vt 0.4602 -0.5615
vt 0.4365 -0.5615
vt 0.4570 -0.5732
vt 0.4485 -0.5820
vt 0.4365 -0.5850
vt 0.4248 -0.5820
vt 0.4163 -0.5732
vt 0.4131 -0.5615
vt 0.4163 -0.5498
vt 0.3989 -0.5396
vt 0.3931 -0.5615
vt 0.3989 -0.5830
vt 0.4148 -0.5991
vt 0.4365 -0.6050
vt 0.4585 -0.5991
vt 0.4744 -0.5830
vt 0.4858 -0.5898
vt 0.4937 -0.5615
vt 0.4858 -0.5327
vt 0.4651 -0.5122
vt 0.4365 -0.5044
vt 0.4082 -0.5122
vt 0.3872 -0.5327
vt 0.3796 -0.5615
vt 0.3872 -0.5898
vt 0.4651 -0.6108
vt 0.4365 -0.6182
vt 0.4082 -0.6108
vt 0.3752 -0.6182
vt 0.3752 -0.6050
vt 0.3752 -0.6108
vt 0.3752 -0.5991
vt 0.3752 -0.5898
vt 0.3752 -0.5830
vt 0.3752 -0.5615
vt 0.3752 -0.5615
vt 0.3752 -0.5327
vt 0.3752 -0.5396
vt 0.3752 -0.5122
vt 0.3752 -0.5234
vt 0.3752 -0.5044
vt 0.3752 -0.5176
vt 0.3752 -0.5122
vt 0.3752 -0.5234
vt 0.3752 -0.5327
vt 0.3752 -0.5396
vt 0.3752 -0.5615
vt 0.3752 -0.5615
vt 0.3752 -0.5898
vt 0.3752 -0.5830
vt 0.3752 -0.6108
vt 0.3752 -0.5991
vt 0.3752 -0.5820
vt 0.3752 -0.5850
vt 0.3752 -0.5820
vt 0.3752 -0.5732
vt 0.3752 -0.5615
vt 0.3752 -0.5498
vt 0.3752 -0.5410
vt 0.3752 -0.5376
vt 0.3752 -0.5410
vt 0.3752 -0.5498
vt 0.3752 -0.5615
vt 0.3752 -0.5732
vt 0.3752 -0.5615
vn 0.3044 -0.4459 -0.8417
vn 0.5007 -0.8656 -0.0021
vn 0.0413 -0.5348 -0.8439
vn -0.0005 -1.0000 -0.0000
vn -0.2334 -0.4849 -0.8429
vn -0.5012 -0.8653 0.0021
vn -0.4458 -0.3046 -0.8417
vn -0.8660 -0.5001 -0.0001
vn -0.5379 -0.0411 -0.8420
vn -1.0000 -0.0003 -0.0001
vn -0.4854 0.2325 -0.8428
vn -0.8665 0.4992 -0.0010
vn -0.3033 0.4424 -0.8440
vn -0.5004 0.8658 0.0010
vn -0.0409 0.5361 -0.8431
vn -0.0005 1.0000 0.0000
vn 0.2325 0.4842 -0.8435
vn 0.4999 0.8661 -0.0009
vn 0.4438 0.3030 -0.8434
vn 0.8665 0.4992 0.0010
vn 0.5375 0.0409 -0.8423
vn 1.0000 -0.0003 0.0001
vn 0.4866 -0.2333 -0.8419
vn 0.8660 -0.5001 0.0001
vn -0.1750 0.3242 0.9296
vn -0.0761 0.1579 0.9845
vn 0.0110 0.3676 0.9299
vn 0.0131 0.1748 0.9845
vn 0.1935 0.3141 0.9295
vn 0.0980 0.1452 0.9845
vn 0.3242 0.1748 0.9297
vn 0.1577 0.0760 0.9846
vn 0.3681 -0.0108 0.9297
vn 0.1746 -0.0132 0.9846
vn -0.0002 -0.0002 1.0000
vn 0.1442 -0.0988 0.9846
vn 0.0761 -0.1578 0.9845
vn -0.0131 -0.1747 0.9845
vn -0.0990 -0.1442 0.9846
vn -0.1579 -0.0764 0.9845
vn -0.1748 0.0127 0.9845
vn -0.1445 0.0990 0.9845
vn -0.3133 0.1939 0.9297
vn -0.3683 0.0103 0.9297
vn -0.3239 -0.1740 0.9300
vn -0.1934 -0.3130 0.9299
vn -0.0108 -0.3681 0.9297
vn 0.1739 -0.3239 0.9300
vn 0.3130 -0.1933 0.9299
vn 0.6089 -0.3718 0.7007
vn 0.7130 -0.0181 0.7009
vn 0.6258 0.3406 0.7017
vn 0.3711 0.6058 0.7038
vn 0.0169 0.7114 0.7026
vn -0.3407 0.6246 0.7027
vn -0.6076 0.3707 0.7025
vn -0.7125 0.0178 0.7014
vn -0.6265 -0.3407 0.7010
vn 0.3406 -0.6252 0.7023
vn -0.0190 -0.7103 0.7037
vn -0.3718 -0.6089 0.7007
vn 0.0018 -0.0470 -0.9989
vn 0.0250 -0.0397 -0.9989
vn 0.0415 -0.0218 -0.9989
vn 0.0471 0.0018 -0.9989
vn 0.0398 0.0252 -0.9989
vn 0.0219 0.0416 -0.9989
vn -0.0019 0.0470 -0.9989
vn -0.0251 0.0398 -0.9989
vn -0.0416 0.0219 -0.9989
vn -0.0470 -0.0018 -0.9989
vn -0.0398 -0.0251 -0.9989
vn -0.0219 -0.0416 -0.9989
vn -0.0089 -0.0181 -0.9998
vn 0.0013 -0.0201 -0.9998
vn 0.0112 -0.0167 -0.9998
vn 0.0181 -0.0089 -0.9998
vn 0.0201 0.0013 -0.9998
vn 0.0167 0.0112 -0.9998
vn 0.0089 0.0180 -0.9998
vn -0.0014 0.0201 -0.9998
vn -0.0112 0.0167 -0.9998
vn -0.0181 0.0089 -0.9998
vn -0.0201 -0.0014 -0.9998
vn -0.0167 -0.0113 -0.9998
vn -0.0000 -0.0000 -1.0000
usemtl Material__32
s 1
f 1/1/1 2/2/2 3/3/3
f 4/4/4 3/3/3 2/2/2
f 3/3/3 4/4/4 5/5/5
f 6/6/6 5/5/5 4/4/4
f 5/5/5 6/6/6 7/7/7
f 8/8/8 7/7/7 6/6/6
f 7/7/7 8/8/8 9/9/9
f 10/10/10 9/9/9 8/8/8
f 9/9/9 10/10/10 11/11/11
f 12/12/12 11/11/11 10/10/10
f 11/11/11 12/12/12 13/13/13
f 14/14/14 13/13/13 12/12/12
f 13/13/13 14/14/14 15/15/15
f 16/16/16 15/15/15 14/14/14
f 15/15/15 16/16/16 17/17/17
f 18/18/18 17/17/17 16/16/16
f 17/17/17 18/18/18 19/19/19
f 20/20/20 19/19/19 18/18/18
f 19/19/19 20/20/20 21/21/21
f 22/22/22 21/21/21 20/20/20
f 21/21/21 22/22/22 23/23/23
f 24/24/24 23/23/23 22/22/22
f 23/23/23 24/24/24 1/1/1
f 2/2/2 1/1/1 24/24/24
f 25/25/25 26/26/26 27/27/27
f 28/28/28 27/27/27 26/26/26
f 27/27/27 28/28/28 29/29/29
f 30/30/30 29/29/29 28/28/28
f 29/29/29 30/30/30 31/31/31
f 32/32/32 31/31/31 30/30/30
f 31/31/31 32/32/32 33/33/33
f 33/33/33 32/32/32 34/34/34
f 35/35/35 34/34/34 32/32/32
f 34/34/34 35/35/35 36/36/36
f 36/36/36 35/35/35 37/37/37
f 37/37/37 35/35/35 38/38/38
f 38/38/38 35/35/35 39/39/39
f 39/39/39 35/35/35 40/40/40
f 40/40/40 35/35/35 41/41/41
f 41/41/41 35/35/35 42/42/42
f 42/42/42 35/35/35 26/26/26
f 26/26/26 35/35/35 28/28/28
f 28/28/28 35/35/35 30/30/30
f 32/32/32 30/30/30 35/35/35
f 26/26/26 25/25/25 42/42/42
f 43/43/43 42/42/42 25/25/25
f 42/42/42 43/43/43 41/41/41
f 44/44/44 41/41/41 43/43/43
f 41/41/41 44/44/44 40/40/40
f 45/45/45 40/40/40 44/44/44
f 40/40/40 45/45/45 39/39/39
f 46/46/46 39/39/39 45/45/45
f 39/39/39 46/46/46 38/38/38
f 47/47/47 38/38/38 46/46/46
f 38/38/38 47/47/47 37/37/37
f 48/48/48 37/37/37 47/47/47
f 37/37/37 48/48/48 36/36/36
f 49/49/49 36/36/36 48/48/48
f 36/36/36 49/49/49 34/34/34
f 34/34/34 49/49/49 33/33/33
f 50/50/50 33/33/33 49/49/49
f 51/51/51 33/33/33 50/50/50
f 33/33/33 51/51/51 31/31/31
f 52/52/52 31/31/31 51/51/51
f 31/31/31 52/52/52 29/29/29
f 53/53/53 29/29/29 52/52/52
f 29/29/29 53/53/53 27/27/27
f 54/54/54 27/27/27 53/53/53
f 27/27/27 54/54/54 25/25/25
f 55/55/55 25/25/25 54/54/54
f 25/25/25 55/55/55 43/43/43
f 56/56/56 43/43/43 55/55/55
f 43/43/43 56/56/56 44/44/44
f 57/57/57 44/44/44 56/56/56
f 44/44/44 57/57/57 45/45/45
f 58/58/58 45/45/45 57/57/57
f 2/2/2 59/59/59 4/4/4
f 60/60/60 4/4/4 59/59/59
f 4/4/4 60/60/60 6/6/6
f 61/61/61 6/6/6 60/60/60
f 6/6/6 61/61/61 8/8/8
f 58/58/58 8/8/8 61/61/61
f 8/8/8 58/58/58 10/10/10
f 57/57/57 10/10/10 58/58/58
f 10/10/10 57/57/57 12/12/12
f 56/56/56 12/12/12 57/57/57
f 12/12/12 56/56/56 14/14/14
f 55/55/55 14/14/14 56/56/56
f 14/14/14 55/55/55 16/16/16
f 54/54/54 16/16/16 55/55/55
f 16/16/16 54/54/54 18/18/18
f 53/53/53 18/18/18 54/54/54
f 18/18/18 53/53/53 20/20/20
f 52/52/52 20/20/20 53/53/53
f 20/20/20 52/52/52 22/22/22
f 51/51/51 22/22/22 52/52/52
f 22/22/22 51/51/51 24/24/24
f 50/50/50 24/24/24 51/51/51
f 24/24/24 50/50/50 2/2/2
f 2/2/2 50/50/50 59/59/59
f 49/49/49 59/59/59 50/50/50
f 48/48/48 59/59/59 49/49/49
f 59/59/59 48/48/48 60/60/60
f 47/47/47 60/60/60 48/48/48
f 60/60/60 47/47/47 61/61/61
f 46/46/46 61/61/61 47/47/47
f 61/61/61 46/46/46 58/58/58
f 45/45/45 58/58/58 46/46/46
f 3/62/3 62/63/62 1/64/1
f 63/65/63 1/64/1 62/63/62
f 1/64/1 63/65/63 23/66/23
f 64/67/64 23/66/23 63/65/63
f 23/66/23 64/67/64 21/68/21
f 65/69/65 21/68/21 64/67/64
f 21/68/21 65/69/65 19/70/19
f 66/71/66 19/70/19 65/69/65
f 19/70/19 66/71/66 17/72/17
f 67/73/67 17/72/17 66/71/66
f 17/72/17 67/73/67 15/74/15
f 68/75/68 15/74/15 67/73/67
f 15/74/15 68/75/68 13/76/13
f 69/77/69 13/76/13 68/75/68
f 13/76/13 69/77/69 11/78/11
f 70/79/70 11/78/11 69/77/69
f 11/78/11 70/79/70 9/80/9
f 71/81/71 9/80/9 70/79/70
f 9/80/9 71/81/71 7/82/7
f 72/83/72 7/82/7 71/81/71
f 7/82/7 72/83/72 5/84/5
f 73/85/73 5/84/5 72/83/72
f 5/84/5 73/85/73 3/62/3
f 3/62/3 73/85/73 62/63/62
f 74/86/74 62/63/62 73/85/73
f 75/87/75 62/63/62 74/86/74
f 62/63/62 75/87/75 63/65/63
f 76/88/76 63/65/63 75/87/75
f 63/65/63 76/88/76 64/67/64
f 77/89/77 64/67/64 76/88/76
f 64/67/64 77/89/77 65/69/65
f 78/90/78 65/69/65 77/89/77
f 65/69/65 78/90/78 66/71/66
f 79/91/79 66/71/66 78/90/78
f 66/71/66 79/91/79 67/73/67
f 80/92/80 67/73/67 79/91/79
f 67/73/67 80/92/80 68/75/68
f 81/93/81 68/75/68 80/92/80
f 68/75/68 81/93/81 69/77/69
f 82/94/82 69/77/69 81/93/81
f 69/77/69 82/94/82 70/79/70
f 83/95/83 70/79/70 82/94/82
f 70/79/70 83/95/83 71/81/71
f 84/96/84 71/81/71 83/95/83
f 71/81/71 84/96/84 72/83/72
f 85/97/85 72/83/72 84/96/84
f 72/83/72 85/97/85 73/85/73
f 73/85/73 85/97/85 74/86/74
f 86/98/86 74/86/74 85/97/85
f 74/86/74 86/98/86 75/87/75
f 75/87/75 86/98/86 76/88/76
f 76/88/76 86/98/86 77/89/77
f 77/89/77 86/98/86 78/90/78
f 78/90/78 86/98/86 79/91/79
f 79/91/79 86/98/86 80/92/80
f 80/92/80 86/98/86 81/93/81
f 81/93/81 86/98/86 82/94/82
f 82/94/82 86/98/86 83/95/83
f 83/95/83 86/98/86 84/96/84
f 85/97/85 84/96/84 86/98/86
